<svg width="94" height="94" viewBox="0 0 94 94" fill="none" xmlns="http://www.w3.org/2000/svg">
<rect width="94" height="94" rx="20" fill="white"/>
<path d="M55.4957 31.0497C55.983 31.1522 56.4704 31.2547 56.9725 31.3604C60.0869 32.0652 62.8844 33.0925 65.7496 34.5002C65.9282 36.3741 65.9723 37.3166 64.8512 38.8701C64.2314 39.4604 64.2314 39.4604 63.5991 40.0626C62.9188 40.7242 62.9188 40.7242 62.2248 41.3992C61.7444 41.8511 61.2641 42.3029 60.7691 42.7685C59.8341 43.6665 58.9002 44.5657 57.9676 45.4662C57.5153 45.9014 57.0631 46.3367 56.5971 46.7851C55.1588 48.215 53.8345 49.7124 52.5193 51.2546C51.1898 52.7786 49.7475 54.1814 48.3017 55.594C45.8417 58.0231 43.524 60.5238 41.2704 63.1461C38.6152 66.2098 38.6152 66.2098 36.648 66.4664C36.1002 66.3697 36.1002 66.3697 35.5413 66.2711C34.7718 64.4804 34.2696 62.7943 33.9198 60.8786C33.7685 60.0625 33.7685 60.0625 33.6142 59.23C33.5089 58.6478 33.4036 58.0656 33.2952 57.4657C33.1835 56.8629 33.0718 56.26 32.9568 55.6389C32.4798 53.0633 32.0091 50.4866 31.5379 47.9099C31.1926 46.0275 30.8442 44.1457 30.4957 42.2639C30.3904 41.6817 30.2851 41.0995 30.1766 40.4997C30.0254 39.6836 30.0254 39.6836 29.8711 38.851C29.784 38.3743 29.697 37.8975 29.6072 37.4063C29.2808 36.0181 28.7885 34.7764 28.2496 33.4586C28.1266 32.0495 28.2015 30.7108 28.2496 29.2919C36.832 27.3519 47.037 29.2458 55.4957 31.0497Z" fill="#E85435"/>
<path d="M41.792 35.5416C41.792 35.8853 41.792 36.2291 41.792 36.5832C40.417 36.4113 39.042 36.2395 37.6253 36.0624C37.7972 36.7499 37.9691 37.4374 38.1462 38.1457C37.5768 38.1994 37.0075 38.2531 36.4209 38.3085C34.5752 38.5315 34.5752 38.5315 33.4587 39.3176C32.8077 40.2536 32.8077 40.2536 33.068 41.5962C33.3428 42.7974 33.3428 42.7974 33.9795 43.3541C35.0564 43.4579 35.0564 43.4579 36.2907 43.4517C36.709 43.4591 37.1272 43.4665 37.5582 43.4741C38.7797 43.4591 38.7797 43.4591 39.7087 42.3124C39.7955 40.446 39.7955 40.446 39.7087 38.6666C40.3962 38.4947 41.0837 38.3228 41.792 38.1457C42.4795 39.0051 43.167 39.8645 43.8753 40.7499C43.7035 41.0936 43.5316 41.4374 43.3545 41.7916C43.6982 41.7916 44.042 41.7916 44.3962 41.7916C44.2243 42.4791 44.0524 43.1666 43.8753 43.8749C43.1878 43.703 42.5003 43.5311 41.792 43.3541C42.3076 43.6978 42.8232 44.0416 43.3545 44.3957C42.3779 46.4139 42.3779 46.4139 41.792 46.9999C41.6184 48.801 41.6184 48.801 41.792 50.6457C43.7325 51.9394 44.7019 51.8855 47.0003 51.6874C48.4883 51.1421 48.4883 51.1421 49.6045 50.1249C49.7656 49.6737 49.9268 49.2225 50.0928 48.7577C50.2754 48.3495 50.458 47.9413 50.6462 47.5207C52.2738 47.0975 52.2738 47.0975 53.7712 46.9999C53.7712 46.6561 53.7712 46.3124 53.7712 45.9582C54.2868 45.9582 54.8024 45.9582 55.3337 45.9582C55.3337 45.6145 55.3337 45.2707 55.3337 44.9166C55.6774 44.9166 56.0212 44.9166 56.3753 44.9166C56.3753 44.5728 56.3753 44.2291 56.3753 43.8749C55.5159 43.8749 54.6566 43.8749 53.7712 43.8749C53.5993 44.2186 53.4274 44.5624 53.2503 44.9166C53.2503 44.5728 53.2503 44.2291 53.2503 43.8749C52.3909 43.8749 51.5316 43.8749 50.6462 43.8749C50.6462 43.703 50.6462 43.5311 50.6462 43.3541C51.2262 43.2574 51.8063 43.1607 52.404 43.0611C53.027 42.814 53.6501 42.5669 54.292 42.3124C55.0945 40.4822 55.0945 40.4822 55.3337 38.6666C54.6462 38.3228 53.9587 37.9791 53.2503 37.6249C56.1958 37.9382 58.7984 38.7185 61.5837 39.7082C59.3558 42.8908 56.8474 45.5999 54.0641 48.302C51.5424 50.7632 49.1133 53.2465 46.8158 55.9192C45.52 57.3955 44.1363 58.7743 42.736 60.1509C42.4718 60.4128 42.2076 60.6746 41.9354 60.9444C41.194 61.679 40.4514 62.4124 39.7087 63.1457C39.3562 63.562 39.0037 63.9782 38.6405 64.4071C38.138 64.814 38.138 64.814 37.6253 65.2291C36.2598 65.02 36.2598 65.02 35.0212 64.7082C33.6748 59.7442 32.7061 54.7294 31.7831 49.6739C31.5361 48.3238 31.2845 46.9747 31.0325 45.6256C30.8732 44.7606 30.7142 43.8956 30.5554 43.0306C30.4432 42.4308 30.4432 42.4308 30.3286 41.8188C29.9777 39.8778 29.7238 38.0365 29.8128 36.0624C33.8187 35.6709 37.7671 35.4702 41.792 35.5416Z" fill="#F89D39"/>
<path d="M55.4962 31.0497C55.9835 31.1522 56.4709 31.2547 56.973 31.3604C60.0874 32.0652 62.8849 33.0925 65.7501 34.5002C65.941 37.3644 65.941 37.3644 65.0889 38.5286C64.1876 39.1877 64.1876 39.1877 62.1694 38.8948C60.7812 38.5355 59.4299 38.1223 58.0719 37.6619C49.9011 34.9241 41.4599 34.348 32.8913 34.1306C32.0965 34.1101 32.0965 34.1101 31.2856 34.0893C30.8124 34.0801 30.3392 34.071 29.8517 34.0615C28.7709 33.9794 28.7709 33.9794 28.2501 33.4586C28.1766 32.0676 28.228 30.6855 28.2501 29.2919C36.8325 27.3519 47.0375 29.2458 55.4962 31.0497Z" fill="#EFAC4D"/>
<path d="M52.5014 37.7875C54.2917 38.1456 54.2917 38.1456 55.3334 38.6664C55.4636 40.0987 55.4636 40.0987 55.3334 41.7914C54.2917 43.0284 54.2917 43.0284 53.2501 43.8748C54.2813 43.8748 55.3126 43.8748 56.3751 43.8748C56.3751 44.2185 56.3751 44.5623 56.3751 44.9164C56.0313 44.9164 55.6876 44.9164 55.3334 44.9164C55.3334 45.2602 55.3334 45.6039 55.3334 45.9581C54.8178 45.9581 54.3021 45.9581 53.7709 45.9581C53.7709 46.3018 53.7709 46.6456 53.7709 46.9998C52.7396 47.1716 51.7084 47.3435 50.6459 47.5206C50.6244 47.9073 50.6029 48.294 50.5808 48.6925C50.1251 50.1248 50.1251 50.1248 48.7579 51.3292C46.7389 52.3387 45.5825 52.497 43.3542 52.2081C42.0847 51.6547 42.0847 51.6547 41.2709 50.6456C40.9364 48.388 41.0179 47.3713 42.3126 45.4698C42.6563 45.1153 43.0001 44.7608 43.3542 44.3956C42.6667 44.2237 41.9792 44.0518 41.2709 43.8748C41.4428 43.531 41.6146 43.1873 41.7917 42.8331C42.823 43.0909 42.823 43.0909 43.8751 43.3539C44.2188 42.4946 44.5626 41.6352 44.9167 40.7498C45.7761 40.9216 46.6355 41.0935 47.5209 41.2706C47.7465 40.8624 47.9721 40.4542 48.2045 40.0336C49.4796 38.0501 50.1242 37.579 52.5014 37.7875Z" fill="#F59837"/>
<path d="M41.7917 35.5416C41.7917 35.8853 41.7917 36.2291 41.7917 36.5832C40.4167 36.4113 39.0417 36.2395 37.625 36.0624C37.7969 36.7499 37.9688 37.4374 38.1458 38.1457C37.5765 38.1994 37.0072 38.2531 36.4206 38.3085C34.5749 38.5315 34.5749 38.5315 33.4583 39.3176C32.8074 40.2536 32.8074 40.2536 33.0677 41.5962C33.3424 42.7974 33.3424 42.7974 33.9792 43.3541C35.0561 43.4579 35.0561 43.4579 36.2904 43.4517C36.7087 43.4591 37.1269 43.4665 37.5579 43.4741C38.7793 43.4591 38.7793 43.4591 39.7083 42.3124C39.7952 40.446 39.7952 40.446 39.7083 38.6666C40.3958 38.4947 41.0833 38.3228 41.7917 38.1457C42.4792 39.0051 43.1667 39.8645 43.875 40.7499C43.7031 41.0936 43.5313 41.4374 43.3542 41.7916C43.6979 41.7916 44.0417 41.7916 44.3958 41.7916C44.224 42.4791 44.0521 43.1666 43.875 43.8749C43.1875 43.703 42.5 43.5311 41.7917 43.3541C42.3073 43.6978 42.8229 44.0416 43.3542 44.3957C42.7543 45.6811 42.2876 46.504 41.2708 47.5207C39.9037 47.3254 39.9037 47.3254 38.6667 46.9999C39.1823 46.828 39.6979 46.6561 40.2292 46.4791C40.0573 46.1353 39.8854 45.7916 39.7083 45.4374C37.9896 45.7811 36.2708 46.1249 34.5 46.4791C34.9044 48.0804 34.9044 48.0804 36.0625 49.0832C34 49.341 34 49.341 31.8958 49.6041C31.5446 47.8362 31.1989 46.0672 30.8542 44.2981C30.7548 43.7982 30.6554 43.2984 30.5531 42.7834C30.4591 42.2983 30.3651 41.8132 30.2682 41.3134C30.181 40.8689 30.0937 40.4243 30.0038 39.9662C29.8094 38.6455 29.7791 37.3953 29.8125 36.0624C33.8183 35.6709 37.7668 35.4702 41.7917 35.5416Z" fill="#F9A846"/>
<path d="M37.6253 36.0626C38.5367 36.0484 39.4482 36.0384 40.3597 36.03C41.1211 36.021 41.1211 36.021 41.8978 36.0117C43.3545 36.0626 43.3545 36.0626 44.3463 36.3159C45.4821 36.5943 46.5251 36.6899 47.6921 36.7482C48.3164 36.7809 48.3164 36.7809 48.9535 36.8143C49.598 36.845 49.598 36.845 50.2555 36.8764C50.6933 36.8989 51.131 36.9214 51.582 36.9445C52.6589 36.9996 53.7358 37.0522 54.8128 37.1042C54.8128 37.2761 54.8128 37.448 54.8128 37.6251C54.4489 37.6882 54.085 37.7513 53.7101 37.8163C53.2361 37.9036 52.7621 37.9909 52.2738 38.0808C51.5668 38.2077 51.5668 38.2077 50.8455 38.3372C49.5185 38.5784 49.5185 38.5784 48.5628 39.7084C48.1996 40.3946 47.8495 41.0882 47.5212 41.7917C47.1237 41.6951 46.7262 41.5984 46.3167 41.4988C44.8703 41.1521 44.8703 41.1521 43.3545 41.7917C43.3008 41.4695 43.2471 41.1472 43.1917 40.8152C42.8986 39.5182 42.8986 39.5182 41.2712 38.6667C40.7555 38.6667 40.2399 38.6667 39.7087 38.6667C39.8859 39.5208 39.8859 39.5208 40.0667 40.392C40.2295 42.3126 40.2295 42.3126 39.6049 43.2017C38.4332 44.0429 37.7554 44.0847 36.3232 44.0704C35.9204 44.0744 35.5176 44.0784 35.1025 44.0826C33.7233 43.8277 33.2454 43.4296 32.417 42.3126C32.4888 40.8762 32.7669 39.9838 33.5238 38.7644C35.0257 37.8132 36.4157 38.048 38.1462 38.1459C37.9743 37.4584 37.8024 36.7709 37.6253 36.0626Z" fill="#F9A23E"/>
<path d="M48.0413 44.9166C49.6364 46.056 49.6364 46.056 50.6455 47.5208C50.7432 48.8554 50.7432 48.8554 50.1247 50.125C48.435 51.6135 47.3548 52.1654 45.1117 52.4362C42.4345 52.0891 42.4345 52.0891 41.2705 50.6458C40.9775 48.8554 40.9775 48.8554 41.2705 47C43.1125 44.7551 45.2823 44.2727 48.0413 44.9166Z" fill="#DB3129"/>
<path d="M34.891 49.4087C36.7298 49.4318 37.0867 49.591 38.6671 50.7433C39.7087 52.2082 39.7087 52.2082 40.0343 53.5103C39.5507 55.4445 38.6583 56.1934 37.1046 57.4165C35.8852 57.9053 34.7512 58.1794 33.4587 58.4582C33.2822 57.5581 33.1093 56.6574 32.9379 55.7564C32.8412 55.2548 32.7445 54.7533 32.6449 54.2366C32.4323 52.83 32.3364 51.544 32.4171 50.1248C32.9379 49.604 32.9379 49.604 34.891 49.4087Z" fill="#DF3B2D"/>
<path d="M38.667 38.1459C39.7087 38.7644 39.7087 38.7644 40.2295 39.7084C40.4248 41.0105 40.4248 41.0105 40.2295 42.3125C39.3875 43.4194 38.9251 43.8274 37.5439 44.0826C36.9397 44.0765 36.9397 44.0765 36.3232 44.0704C35.9204 44.0744 35.5176 44.0784 35.1025 44.0826C33.7233 43.8277 33.2454 43.4296 32.417 42.3125C32.488 40.8928 32.7744 39.9871 33.4912 38.7644C35.1296 37.7602 36.8009 37.8621 38.667 38.1459Z" fill="#E03A2F"/>
<path d="M61.0628 40.229C61.4066 40.5728 61.7503 40.9165 62.1045 41.2707C61.658 41.7111 61.2115 42.1515 60.7515 42.6053C57.0204 46.2608 57.0204 46.2608 53.5107 50.1248C51.6045 52.3741 49.4978 54.4117 47.403 56.4828C45.2517 58.6191 43.247 60.8467 41.2712 63.1457C38.6159 66.2094 38.6159 66.2094 36.6488 66.466C36.1009 66.3693 36.1009 66.3693 35.542 66.2707C35.542 65.7551 35.542 65.2394 35.542 64.7082C35.9824 64.7082 36.4229 64.7082 36.8766 64.7082C39.129 64.0529 39.7701 63.1113 41.2101 61.3289C42.5353 59.7568 43.971 58.3343 45.4378 56.8957C47.1275 55.2279 48.7865 53.5669 50.3206 51.7524C52.3852 49.3181 54.6781 47.1085 56.9559 44.8761C58.4532 43.4002 59.8714 41.9729 61.0628 40.229Z" fill="#D06518"/>
<path d="M53.2497 37.625C56.1925 37.9381 58.8026 38.7059 61.583 39.7083C59.7272 42.3605 57.9125 44.5139 55.333 46.4792C55.333 45.9635 55.333 45.4479 55.333 44.9167C55.6768 44.9167 56.0205 44.9167 56.3747 44.9167C56.3747 44.5729 56.3747 44.2292 56.3747 43.875C55.5153 43.875 54.6559 43.875 53.7705 43.875C53.5986 44.2188 53.4268 44.5625 53.2497 44.9167C53.2497 44.5729 53.2497 44.2292 53.2497 43.875C52.3903 43.875 51.5309 43.875 50.6455 43.875C50.6455 43.7031 50.6455 43.5313 50.6455 43.3542C51.5156 43.2091 51.5156 43.2091 52.4033 43.0612C53.0264 42.8141 53.6494 42.5671 54.2913 42.3125C55.0939 40.4823 55.0939 40.4823 55.333 38.6667C54.6455 38.3229 53.958 37.9792 53.2497 37.625Z" fill="#F99630"/>
<path d="M54.2921 38.146C54.6358 38.3178 54.9796 38.4897 55.3337 38.6668C55.464 40.1316 55.464 40.1316 55.3337 41.7918C54.161 43.145 53.4326 43.332 51.6554 43.5496C50.1254 43.3543 50.1254 43.3543 49.1488 42.7358C48.343 41.4374 48.3004 40.6878 48.5629 39.1876C50.2607 37.1503 51.8747 37.6088 54.2921 38.146Z" fill="#D52920"/>
<path d="M41.7917 35.5414C41.7917 35.8852 41.7917 36.2289 41.7917 36.5831C40.4167 36.4112 39.0417 36.2393 37.625 36.0623C37.7969 36.7498 37.9688 37.4373 38.1458 38.1456C37.2757 38.2584 37.2757 38.2584 36.388 38.3735C34.593 38.5538 34.593 38.5538 33.4583 39.1873C32.3516 38.699 32.3516 38.699 31.375 38.1456C31.668 37.1365 31.668 37.1365 32.4167 36.0623C35.471 35.2824 38.6571 35.4904 41.7917 35.5414Z" fill="#F3A345"/>
<path d="M40.2288 45.4376C40.2288 46.3056 40.2288 47.1737 40.2288 48.0417C39.724 48.1062 39.2191 48.1706 38.6989 48.2371C37.9093 48.3982 37.9093 48.3982 37.1038 48.5626C36.932 48.9063 36.7601 49.2501 36.583 49.6042C35.5068 49.8199 35.5068 49.8199 34.2067 49.9298C33.5612 49.9882 33.5612 49.9882 32.9026 50.0478C32.4041 50.086 32.4041 50.086 31.8955 50.1251C32.0674 49.7813 32.2393 49.4376 32.4163 49.0834C33.751 48.7579 33.751 48.7579 35.0205 48.5626C34.6768 47.8751 34.333 47.1876 33.9788 46.4792C34.6269 46.2008 35.2787 45.9313 35.932 45.6654C36.2945 45.5144 36.6571 45.3633 37.0306 45.2077C38.3018 44.876 38.9999 45.0196 40.2288 45.4376Z" fill="#E77D27"/>
<path d="M63.6663 33.979C64.3538 34.1509 65.0413 34.3228 65.7497 34.4998C65.9376 37.3183 65.9376 37.3183 65.1312 38.634C64.1872 39.1873 64.1872 39.1873 62.7874 39.0246C62.39 38.9064 61.9925 38.7882 61.583 38.6665C61.8594 36.6764 62.3627 35.5094 63.6663 33.979Z" fill="#EBA43E"/>
<path d="M39.1878 55.854C39.7034 56.3696 40.2191 56.8853 40.7503 57.4165C40.7503 57.7603 40.7503 58.104 40.7503 58.4582C38.8504 59.1209 37.0036 59.6708 35.0212 60.0207C35.0212 60.3644 35.0212 60.7082 35.0212 61.0623C34.6774 61.0623 34.3337 61.0623 33.9795 61.0623C33.9795 60.0311 33.9795 58.9998 33.9795 57.9373C35.6982 57.2498 37.417 56.5623 39.1878 55.854Z" fill="#F8A13D"/>
<path d="M48.0417 44.9166C49.0833 45.6979 49.0833 45.6979 49.6042 46.4791C49.2604 46.4791 48.9167 46.4791 48.5625 46.4791C48.5625 46.8229 48.5625 47.1666 48.5625 47.5208C46.5 47.3489 44.4375 47.177 42.3125 47C42.4844 46.4843 42.6563 45.9687 42.8333 45.4375C44.4845 44.6119 46.2431 44.6959 48.0417 44.9166Z" fill="#CA2219"/>
<path d="M36.5508 37.9507C38.5069 37.9862 38.5069 37.9862 39.7083 39.1877C39.8802 39.5314 40.0521 39.8752 40.2292 40.2293C39.821 40.2078 39.4128 40.1864 38.9922 40.1642C37.5411 40.0797 37.5411 40.0797 36.5833 41.271C36.0677 41.0991 35.5521 40.9272 35.0208 40.7502C33.9049 40.9529 33.9049 40.9529 32.9375 41.271C33.4327 38.7951 33.8976 38.2034 36.5508 37.9507Z" fill="#C61F16"/>
<path d="M53.25 37.625C55.4988 37.8896 57.4339 38.2483 59.5 39.1875C59.3281 40.0469 59.1562 40.9062 58.9792 41.7917C57.776 41.6198 56.5729 41.4479 55.3333 41.2708C55.3333 40.4115 55.3333 39.5521 55.3333 38.6667C54.6458 38.3229 53.9583 37.9792 53.25 37.625Z" fill="#F48626"/>
<path d="M51.7852 40.3918C52.5103 40.5691 52.5103 40.5691 53.25 40.7499C53.25 41.2655 53.25 41.7812 53.25 42.3124C53.5937 42.4843 53.9375 42.6562 54.2917 42.8333C52.834 43.5621 51.737 43.4857 50.125 43.3541C49.1484 42.5728 49.1484 42.5728 48.5625 41.7916C49.6238 40.3176 49.915 40.2085 51.7852 40.3918Z" fill="#E44034"/>
<path d="M41.2708 47C42.6458 47.1719 44.0208 47.3438 45.4375 47.5208C45.4375 47.8646 45.4375 48.2083 45.4375 48.5625C44.75 48.7344 44.0625 48.9063 43.3541 49.0833C43.1822 49.7708 43.0104 50.4583 42.8333 51.1667C44.2083 51.3385 45.5833 51.5104 47 51.6875C47 51.8594 47 52.0313 47 52.2083C45.1813 52.3133 43.7712 52.3901 42.0846 51.6549C40.8716 50.1508 41.1299 48.8668 41.2708 47Z" fill="#E54434"/>
<path d="M55.333 37.104C58.3893 37.3769 60.8271 38.0212 63.6663 39.1873C63.1507 39.9608 63.1507 39.9608 62.6247 40.7498C62.2809 40.7498 61.9372 40.7498 61.583 40.7498C61.583 40.4061 61.583 40.0623 61.583 39.7082C61.0352 39.6545 60.4873 39.6007 59.9228 39.5454C58.0005 39.1988 56.896 38.7615 55.333 37.6248C55.333 37.453 55.333 37.2811 55.333 37.104Z" fill="#DA3422"/>
<path d="M42.8337 59.5C43.1774 59.8438 43.5212 60.1875 43.8753 60.5417C42.9824 61.5049 42.0815 62.4574 41.1735 63.4063C40.9221 63.6795 40.6706 63.9528 40.4116 64.2343C39.1705 65.517 38.46 66.2332 36.6549 66.4499C36.2876 66.3908 35.9204 66.3317 35.542 66.2708C35.542 65.7552 35.542 65.2396 35.542 64.7083C35.9824 64.7083 36.4229 64.7083 36.8766 64.7083C39.5126 63.9415 40.6645 62.1278 42.3128 60.0208C42.4847 59.849 42.6566 59.6771 42.8337 59.5Z" fill="#D6741A"/>
<path d="M36.0588 49.4841C37.1045 49.6041 37.1045 49.6041 38.667 50.6458C38.667 51.1614 38.667 51.6771 38.667 52.2083C37.9177 52.1628 37.1691 52.1064 36.4209 52.0456C36.004 52.0153 35.587 51.9851 35.1575 51.954C33.7906 51.6447 33.2981 51.1886 32.417 50.125C33.3943 49.1477 34.7597 49.5105 36.0588 49.4841Z" fill="#C51E16"/>
<path d="M41.792 58.4586C41.3688 59.4677 41.3688 59.4677 40.7503 60.5419C38.9413 61.1449 37.4375 61.0985 35.542 61.0627C35.542 60.719 35.542 60.3752 35.542 60.0211C37.6107 58.3912 39.2099 58.3067 41.792 58.4586Z" fill="#ED7413"/>
<path d="M29.8125 34.5C32.2188 34.5 34.625 34.5 37.1042 34.5C37.1042 34.8437 37.1042 35.1875 37.1042 35.5417C35.8086 36.1895 34.9028 36.1318 33.4583 36.1276C32.9964 36.1289 32.5345 36.1303 32.0586 36.1317C30.8542 36.0625 30.8542 36.0625 29.8125 35.5417C29.8125 35.1979 29.8125 34.8542 29.8125 34.5Z" fill="#E53F32"/>
<path d="M54.2913 38.146C54.4632 38.6616 54.6351 39.1773 54.8122 39.7085C52.9215 39.7085 51.0309 39.7085 49.083 39.7085C49.2549 39.1929 49.4268 38.6773 49.6038 38.146C51.2022 37.3468 52.5731 37.8596 54.2913 38.146Z" fill="#C71E15"/>
<path d="M53.7712 43.875C54.6305 43.875 55.4899 43.875 56.3753 43.875C56.3753 44.2188 56.3753 44.5625 56.3753 44.9167C56.0316 44.9167 55.6878 44.9167 55.3337 44.9167C55.3337 45.2604 55.3337 45.6042 55.3337 45.9583C54.818 45.9583 54.3024 45.9583 53.7712 45.9583C53.7712 46.3021 53.7712 46.6458 53.7712 47C53.0837 47.1719 52.3962 47.3438 51.6878 47.5208C51.516 46.8333 51.3441 46.1458 51.167 45.4375C51.5 45.373 51.833 45.3086 52.1761 45.2422C52.7078 45.0811 52.7078 45.0811 53.2503 44.9167C53.4222 44.5729 53.5941 44.2292 53.7712 43.875Z" fill="#B26926"/>
<path d="M41.2712 54.8125C42.3779 55.0078 42.3779 55.0078 43.3545 55.3333C43.3545 56.0208 43.3545 56.7083 43.3545 57.4167C42.4951 57.5885 41.6357 57.7604 40.7503 57.9375C40.4248 56.9609 40.4248 56.9609 40.2295 55.8542C40.5732 55.5104 40.917 55.1667 41.2712 54.8125Z" fill="#625641"/>
<path d="M37.625 36.0625C39 36.2344 40.375 36.4062 41.7917 36.5833C41.6198 37.2708 41.4479 37.9583 41.2708 38.6667C40.5833 38.8385 39.8958 39.0104 39.1875 39.1875C37.625 37.2344 37.625 37.2344 37.625 36.0625Z" fill="#AE773A"/>
<path d="M44.9163 40.75C45.7757 40.9219 46.6351 41.0938 47.5205 41.2708C47.3486 41.9583 47.1768 42.6458 46.9997 43.3542C46.1403 43.1823 45.2809 43.0104 44.3955 42.8333C44.5674 42.1458 44.7393 41.4583 44.9163 40.75Z" fill="#5D5542"/>
<path d="M41.792 37.625C42.6514 37.625 43.5107 37.625 44.3962 37.625C44.7399 38.4844 45.0837 39.3438 45.4378 40.2292C44.2008 40.099 44.2008 40.099 42.8337 39.7083C42.1501 38.6341 42.1501 38.6341 41.792 37.625Z" fill="#EF8620"/>
<path d="M64.1875 35.021C64.5313 35.021 64.875 35.021 65.2292 35.021C64.9441 36.7786 64.6797 37.6681 63.6667 39.1877C63.3229 39.1877 62.9792 39.1877 62.625 39.1877C63.0156 36.1929 63.0156 36.1929 64.1875 35.021Z" fill="#E3912F"/>
<path d="M48.5625 43.875C49.8516 44.1328 49.8516 44.1328 51.1667 44.3958C51.3385 45.4271 51.5104 46.4583 51.6875 47.5208C51.1719 47.5208 50.6562 47.5208 50.125 47.5208C50.0605 47.1878 49.9961 46.8548 49.9297 46.5117C49.7686 45.98 49.7686 45.98 49.6042 45.4375C49.2604 45.2656 48.9167 45.0938 48.5625 44.9167C48.5625 44.5729 48.5625 44.2292 48.5625 43.875Z" fill="#F28F2A"/>
<path d="M34.5003 45.9585C35.3597 46.1304 36.2191 46.3022 37.1045 46.4793C36.9326 46.995 36.7607 47.5106 36.5837 48.0418C35.7243 47.87 34.8649 47.6981 33.9795 47.521C34.1514 47.0054 34.3232 46.4897 34.5003 45.9585Z" fill="#5D5644"/>
<path d="M37.625 39.7083C37.1094 40.4818 37.1094 40.4818 36.5833 41.2708C36.0677 41.099 35.5521 40.9271 35.0208 40.75C33.9049 40.9528 33.9049 40.9528 32.9375 41.2708C32.9375 40.7552 32.9375 40.2396 32.9375 39.7083C34.7491 39.1045 35.7807 39.3395 37.625 39.7083Z" fill="#D52922"/>
</svg>
